<?xml version="1.0"?>
<svg xmlns="http://www.w3.org/2000/svg" height="512px" viewBox="0 -1 460.6895 460" width="512px"><g><path d="m233.539062 173.960938-12.378906-12.382813-30.734375 26.636719 12.214844 12.21875zm0 0" data-original="#000000" class="active-path" data-old_color="#000000" fill="#FB3348"/><path d="m0 341.789062 12.6875-12.6875 116.6875 116.6875-12.6875 12.6875zm0 0" data-original="#000000" class="active-path" data-old_color="#000000" fill="#FB3348"/><path d="m396.691406 21.792969c0 4.417969-3.582031 8-8 8-4.421875 0-8-3.582031-8-8s3.578125-8 8-8c4.417969 0 8 3.582031 8 8zm0 0" data-original="#000000" class="active-path" data-old_color="#000000" fill="#FB3348"/><path d="m190.464844 210.878906-12.160156-12.167968-18.359376 15.914062 11.070313 12.917969zm0 0" data-original="#000000" class="active-path" data-old_color="#000000" fill="#FB3348"/><path d="m259.386719 151.800781-12.511719-12.519531-13.601562 11.785156 12.449218 12.445313zm0 0" data-original="#000000" class="active-path" data-old_color="#000000" fill="#FB3348"/><path d="m340.691406 69.792969c0 4.417969-3.582031 8-8 8-4.421875 0-8-3.582031-8-8s3.578125-8 8-8c4.417969 0 8 3.582031 8 8zm0 0" data-original="#000000" class="active-path" data-old_color="#000000" fill="#FB3348"/><path d="m280.921875 133.335938-12.625-12.625-9.304687 8.074218 12.578124 12.566406zm0 0" data-original="#000000" class="active-path" data-old_color="#000000" fill="#FB3348"/><path d="m119.226562 293.007812 48.976563 48.984376 12.535156-12.832032-47.855469-47.847656zm0 0" data-original="#000000" class="active-path" data-old_color="#000000" fill="#FB3348"/><path d="m360.457031 86.25 29.105469 29.101562 16.496094-16.878906-27.632813-27.632812zm0 0" data-original="#000000" class="active-path" data-old_color="#000000" fill="#FB3348"/><path d="m390.609375 60.402344 26.625 26.621094 12.535156-12.832032-25.496093-25.503906zm0 0" data-original="#000000" class="active-path" data-old_color="#000000" fill="#FB3348"/><path d="m106.992188 303.496094c-19.214844 16.480468-42.917969 26.609375-67.871094 29.417968l86.976562 86.976563c3.503906-24.65625 14.207032-47.585937 31.097656-66.28125l-50.152343-50.152344zm0 0" data-original="#000000" class="active-path" data-old_color="#000000" fill="#FB3348"/><path d="m460.671875.34375-44.214844 37.90625 24.496094 24.496094 19.738281-20.210938zm0 0" data-original="#000000" class="active-path" data-old_color="#000000" fill="#FB3348"/><path d="m334.609375 108.402344 31.230469 31.230468 12.546875-12.832031-30.113281-30.113281zm0 0" data-original="#000000" class="active-path" data-old_color="#000000" fill="#FB3348"/><path d="m145.066406 270.863281 46.847656 46.847657 162.75-166.628907-32.238281-32.242187zm0 0" data-original="#000000" class="active-path" data-old_color="#000000" fill="#FB3348"/></g> </svg>
