<svg version="1.1" preserveAspectRatio="none" xmlns="http://www.w3.org/2000/svg" width="500" height="500" viewBox="0 0 500 500"><rect width="100%" height="100%" fill="#F9F7F7" fill-opacity="1"/><svg viewBox="32.108 122.0194 350.8166 90.7" width="333" height="86.09370252148844" x="83.5px" y="206.9531px" xmlns="http://www.w3.org/2000/svg" xmlns:xlink="http://www.w3.org/1999/xlink" preserveAspectRatio="none"><defs></defs><style>.aq6WP-wJgVstrokeColor-str {stroke:#0C0C0C;stroke-opacity:1;}.companyName {fill:#2C3E57;fill-opacity:1;}.icon1 {fill:#9C8B58;fill-opacity:1;}.icon3 {fill:#C8B889;fill-opacity:1;}.icon3-str {stroke:#C8B889;stroke-opacity:1;}.shape {fill:#9C8B58;fill-opacity:1;}.shapeStroke-str {stroke:#2C3E57;stroke-opacity:1;}</style><g opacity="1" transform="rotate(0 32.108 197.0194)">
<svg width="135.4083" height="1.4" x="32.108" y="197.0194" version="1.1" preserveAspectRatio="none" viewBox="0 0 135.4083 1.4">
  <defs><rect x="0" y="0" width="135.4083" height="1.4" rx="0px" ry="0px" id="id-5kldYRpCP1697432712010"></rect></defs><use class="icon1 shapeStroke-str" style="stroke-width:0;" xlink:href="#id-5kldYRpCP1697432712010"></use>
</svg>
</g><g opacity="1" transform="rotate(0 184.0833 180.7194)">
<svg width="46.8661" height="32" x="184.0833" y="180.7194" version="1.1" preserveAspectRatio="none" viewBox="19.99881172180176 45.37599182128906 160.0006866455078 109.24801635742188">
  <g transform="matrix(1 0 0 1 0 0)"><g><path d="M120.23 154.624c-6.238 0-12.903-.92-19.976-2.761a2.286 2.286 0 0 1-1.709-2.033c-1.549-19.328 2.791-34.715 12.903-45.73 12.783-13.927 35.069-21.078 66.247-21.254.665.166 1.334.296 1.768.818.439.522.622 1.212.499 1.883-5.591 30.676-16.503 51.385-32.436 61.552-7.852 5.011-16.988 7.525-27.296 7.525zm-17.236-6.797c16.793 4.065 30.936 2.514 42.066-4.589 14.356-9.157 24.399-27.914 29.879-55.776-28.387.558-48.602 7.193-60.116 19.735-8.931 9.733-12.907 23.398-11.829 40.63z" data-color="1" class="icon1"></path><path d="M79.769 154.624c-10.31 0-19.443-2.51-27.297-7.525-15.934-10.167-26.847-30.876-32.436-61.552a2.29 2.29 0 0 1 2.255-2.701h.013c31.178.177 53.468 7.329 66.249 21.254 10.107 11.015 14.449 26.402 12.898 45.73a2.286 2.286 0 0 1-1.709 2.033c-7.071 1.84-13.737 2.761-19.973 2.761zM25.063 87.462c5.48 27.861 15.523 46.619 29.875 55.776 11.136 7.108 25.279 8.65 42.063 4.589 1.084-17.232-2.891-30.897-11.822-40.63C73.667 94.655 53.45 88.02 25.063 87.462zm74.105 62.185h.043-.043z" data-color="1" class="icon1"></path><path d="M101.456 150.277c-.464 0-.929-.145-1.329-.426-15.8-11.237-24.795-24.45-26.736-39.275-2.452-18.742 6.398-40.412 26.302-64.411.869-1.052 2.659-1.052 3.528 0 19.904 23.999 28.754 45.668 26.3 64.411-1.939 14.824-10.934 28.038-26.734 39.275a2.325 2.325 0 0 1-1.331.426zm0-99.032c-17.82 22.107-25.731 41.857-23.523 58.739 1.715 13.099 9.626 24.923 23.523 35.171 13.895-10.248 21.808-22.073 23.521-35.171 2.212-16.882-5.701-36.632-23.521-58.739z" data-color="1" class="icon1"></path></g></g>
</svg>
</g><g opacity="1" transform="rotate(0 32.108 122.0194)">
<svg width="350.8166" height="40" x="32.108" y="122.0194" version="1.1" preserveAspectRatio="none" viewBox="2.4 -28 250.48 28.560000000000002">
  <g transform="matrix(1 0 0 1 0 0)" class="companyName"><path id="id-D6z1nYkh11" d="M12.16 0L12.16 0L2.40 0L2.44-0.40L2.92-0.40Q3.96-0.40 4.70-1.12Q5.44-1.84 5.48-2.88L5.48-2.88L5.48-25.12Q5.48-26.16 4.72-26.88Q3.96-27.60 2.92-27.60L2.92-27.60L2.44-27.60L2.40-28L10.36-28Q14.48-28 16.76-26.18Q19.04-24.36 19.04-21.32L19.04-21.32Q19.04-18.92 17.76-17.34Q16.48-15.76 14.64-15.24L14.64-15.24Q17.80-14.76 19.64-12.64Q21.48-10.52 21.48-7.30Q21.48-4.08 19.02-2.04Q16.56 0 12.16 0ZM8.08-26.72L8.08-1.44L12-1.44Q12.04-1.44 12.08-1.44L12.08-1.44Q15.12-1.44 16.80-3.10Q18.48-4.76 18.48-7.80L18.48-7.80Q18.48-9.52 17.90-10.82Q17.32-12.12 16.44-12.88L16.44-12.88Q14.12-14.80 9.48-14.80L9.48-14.80Q9.48-14.80 9.44-14.80L9.44-14.80L9.44-15.16Q9.48-15.16 9.82-15.16Q10.16-15.16 10.80-15.24Q11.44-15.32 12.24-15.52Q13.04-15.72 13.68-16.16Q14.32-16.60 14.88-17.20L14.88-17.20Q16.04-18.52 16.04-21.14Q16.04-23.76 14.54-25.24Q13.04-26.72 10.20-26.72L10.20-26.72L8.08-26.72Z M26.04-0.40L26.60-0.40Q27.56-0.40 28.22-1.02Q28.88-1.64 28.92-2.52L28.92-2.52L28.92-21.52Q28.92-22.40 28.24-23Q27.56-23.60 26.60-23.60L26.60-23.60L26.04-23.60L26.04-24L37.72-24Q39.36-24 40.60-24.24Q41.84-24.48 42.20-24.64L42.20-24.64L42.20-20.08L41.76-20.12L41.76-20.72Q41.76-21.56 41.20-22.16Q40.64-22.76 39.76-22.76L39.76-22.76L31.44-22.76L31.44-12.60L38.28-12.60Q39.08-12.60 39.50-13.08Q39.92-13.56 39.92-14.28L39.92-14.28L39.92-14.80L40.36-14.80L40.36-9.20L39.92-9.20L39.92-9.72Q39.92-10.84 39.08-11.24L39.08-11.24Q38.76-11.36 38.40-11.40L38.40-11.40L31.44-11.40L31.44-1.24L37.72-1.24Q39.56-1.24 40.82-1.88Q42.08-2.52 42.74-3.40Q43.40-4.28 44.08-5.72L44.08-5.72L44.48-5.72L42.28 0L26.04 0L26.04-0.40Z M48.80-1.32L48.80-1.32Q48.68-1.80 48.68-3.28Q48.68-4.76 49.20-6.28L49.20-6.28L49.68-6.28Q49.64-5.92 49.64-5.56L49.64-5.56Q49.64-3.40 51.06-2.02Q52.48-0.64 55-0.64L55-0.64Q57.64-0.64 59.12-1.86Q60.60-3.08 60.60-5.02Q60.60-6.96 59.16-8.24L59.16-8.24L51.16-14.40Q49.24-16.04 49.24-18.80L49.24-18.80Q49.24-20.36 50.10-21.68Q50.96-23 52.50-23.78Q54.04-24.56 56.12-24.56Q58.20-24.56 59.80-24.20L59.80-24.20L61.12-24.20L61.20-19.84L60.76-19.84Q60.76-21.52 59.60-22.44Q58.44-23.36 56.28-23.36Q54.12-23.36 52.72-22.26Q51.32-21.16 51.32-19.42Q51.32-17.68 52.88-16.40L52.88-16.40L60.96-10.16Q62.80-8.64 62.80-5.92Q62.80-3.20 60.74-1.32Q58.68 0.56 55.72 0.56L55.72 0.56Q53.76 0.56 51.80 0.08Q49.84-0.40 48.80-1.32Z M85.88-22.84L78.64-22.84L78.64-2.52Q78.68-1.28 79.84-0.68L79.84-0.68Q80.36-0.40 81-0.40L81-0.40L81.44-0.40L81.44 0L73.20 0L73.20-0.40L73.68-0.40Q74.64-0.40 75.32-1.04Q76-1.68 76.04-2.56L76.04-2.56L76.04-22.84L68.80-22.84Q67.88-22.84 67.34-22.24Q66.80-21.64 66.80-20.80L66.80-20.80L66.80-20.16L66.36-20.16L66.36-24.68Q67.16-24.36 68.62-24.20Q70.08-24.04 70.80-24.04L70.80-24.04L83.84-24.04Q86.72-24.04 88.32-24.68L88.32-24.68L88.32-20.16L87.88-20.16L87.88-20.80Q87.88-21.64 87.32-22.24Q86.76-22.84 85.88-22.84L85.88-22.84Z M100.32-26.76L100.32-26.76L97.76-26.76L97.76-2.92Q97.76-1.88 98.50-1.14Q99.24-0.40 100.32-0.40L100.32-0.40L100.80-0.40L100.84 0L92.08 0L92.08-0.40L92.60-0.40Q93.64-0.40 94.38-1.12Q95.12-1.84 95.16-2.88L95.16-2.88L95.16-25.08Q95.12-26.12 94.38-26.86Q93.64-27.60 92.60-27.60L92.60-27.60L92.08-27.60L92.08-28L102.88-28Q106.52-28 108.60-25.98Q110.68-23.96 110.68-20.74Q110.68-17.52 108.70-15.18Q106.72-12.84 103.88-12.84L103.88-12.84Q104.48-12.56 105.30-11.74Q106.12-10.92 106.76-10.04L106.76-10.04Q110.20-5.12 111.24-3.98Q112.28-2.84 112.72-2.42Q113.16-2 113.68-1.60Q114.20-1.20 114.72-0.96L114.72-0.96Q115.88-0.40 117.20-0.40L117.20-0.40L117.20 0L115 0Q113.28 0 111.80-0.62Q110.32-1.24 109.58-1.90Q108.84-2.56 108.30-3.18Q107.76-3.80 105.32-7.32Q102.88-10.84 102.48-11.34Q102.08-11.84 101.64-12.32L101.64-12.32Q100.36-13.68 99.08-13.68L99.08-13.68L99.08-14.08Q99.40-14.04 99.92-14.04Q100.44-14.04 101.20-14.08L101.20-14.08Q106.16-14.20 107.44-18.24L107.44-18.24Q107.68-19.04 107.68-19.74Q107.68-20.44 107.68-20.64L107.68-20.64Q107.60-23.32 106.28-24.96Q104.96-26.60 102.72-26.72L102.72-26.72Q101.76-26.76 100.32-26.76Z M118.56-0.40L119.12-0.40Q120.20-0.40 121-1.04Q121.80-1.68 121.80-2.56L121.80-2.56L121.80-21.44Q121.80-22.32 121-22.96Q120.20-23.60 119.08-23.60L119.08-23.60L118.56-23.60L118.56-24L127.60-24L127.60-23.60L127.08-23.60Q126-23.60 125.22-23Q124.44-22.40 124.36-21.52L124.36-21.52L124.36-2.52Q124.40-1.64 125.20-1.02Q126-0.40 127.08-0.40L127.08-0.40L127.60-0.40L127.64 0L118.56 0L118.56-0.40Z M132.92-1.32L132.92-1.32Q132.80-1.80 132.80-3.28Q132.80-4.76 133.32-6.28L133.32-6.28L133.80-6.28Q133.76-5.92 133.76-5.56L133.76-5.56Q133.76-3.40 135.18-2.02Q136.60-0.64 139.12-0.64L139.12-0.64Q141.76-0.64 143.24-1.86Q144.72-3.08 144.72-5.02Q144.72-6.96 143.28-8.24L143.28-8.24L135.28-14.40Q133.36-16.04 133.36-18.80L133.36-18.80Q133.36-20.36 134.22-21.68Q135.08-23 136.62-23.78Q138.16-24.56 140.24-24.56Q142.32-24.56 143.92-24.20L143.92-24.20L145.24-24.20L145.32-19.84L144.88-19.84Q144.88-21.52 143.72-22.44Q142.56-23.36 140.40-23.36Q138.24-23.36 136.84-22.26Q135.44-21.16 135.44-19.42Q135.44-17.68 137.00-16.40L137.00-16.40L145.08-10.16Q146.92-8.64 146.92-5.92Q146.92-3.20 144.86-1.32Q142.80 0.56 139.84 0.56L139.84 0.56Q137.88 0.56 135.92 0.08Q133.96-0.40 132.92-1.32Z M169.40-0.40L169.88-0.40Q170.80-0.40 171.48-1.02Q172.16-1.64 172.20-2.52L172.20-2.52L172.20-11.24L157.44-11.24L157.44-2.52Q157.48-1.64 158.16-1.02Q158.84-0.40 159.76-0.40L159.76-0.40L160.24-0.40L160.24 0L152.08 0L152.08-0.40L152.56-0.40Q153.52-0.40 154.18-1.04Q154.84-1.68 154.88-2.56L154.88-2.56L154.88-21.44Q154.84-22.32 154.16-22.96Q153.48-23.60 152.56-23.60L152.56-23.60L152.08-23.60L152.08-24L160.24-24L160.24-23.60L159.76-23.60Q158.84-23.60 158.16-22.98Q157.48-22.36 157.44-21.48L157.44-21.48L157.44-12.44L172.20-12.44L172.20-21.44Q172.20-22.32 171.68-22.80L171.68-22.80Q170.84-23.60 169.88-23.60L169.88-23.60L169.40-23.60L169.40-24L177.56-24L177.56-23.60L177.08-23.60Q176.16-23.60 175.48-23Q174.80-22.40 174.76-21.52L174.76-21.52L174.76-2.52Q174.80-1.64 175.28-1.20L175.28-1.20Q176.16-0.40 177.08-0.40L177.08-0.40L177.56-0.40L177.56 0L169.40 0L169.40-0.40Z M200.64-22.84L193.40-22.84L193.40-2.52Q193.44-1.28 194.60-0.68L194.60-0.68Q195.12-0.40 195.76-0.40L195.76-0.40L196.20-0.40L196.20 0L187.96 0L187.96-0.40L188.44-0.40Q189.40-0.40 190.08-1.04Q190.76-1.68 190.80-2.56L190.80-2.56L190.80-22.84L183.56-22.84Q182.64-22.84 182.10-22.24Q181.56-21.64 181.56-20.80L181.56-20.80L181.56-20.16L181.12-20.16L181.12-24.68Q181.92-24.36 183.38-24.20Q184.84-24.04 185.56-24.04L185.56-24.04L198.60-24.04Q201.48-24.04 203.08-24.68L203.08-24.68L203.08-20.16L202.64-20.16L202.64-20.80Q202.64-21.64 202.08-22.24Q201.52-22.84 200.64-22.84L200.64-22.84Z M206.64-0.40L207.20-0.40Q208.16-0.40 208.82-1.02Q209.48-1.64 209.52-2.52L209.52-2.52L209.52-21.52Q209.52-22.40 208.84-23Q208.16-23.60 207.20-23.60L207.20-23.60L206.64-23.60L206.64-24L218.32-24Q219.96-24 221.20-24.24Q222.44-24.48 222.80-24.64L222.80-24.64L222.80-20.08L222.36-20.12L222.36-20.72Q222.36-21.56 221.80-22.16Q221.24-22.76 220.36-22.76L220.36-22.76L212.04-22.76L212.04-12.60L218.88-12.60Q219.68-12.60 220.10-13.08Q220.52-13.56 220.52-14.28L220.52-14.28L220.52-14.80L220.96-14.80L220.96-9.20L220.52-9.20L220.52-9.72Q220.52-10.84 219.68-11.24L219.68-11.24Q219.36-11.36 219.00-11.40L219.00-11.40L212.04-11.40L212.04-1.24L218.32-1.24Q220.16-1.24 221.42-1.88Q222.68-2.52 223.34-3.40Q224.00-4.28 224.68-5.72L224.68-5.72L225.08-5.72L222.88 0L206.64 0L206.64-0.40Z M252.88-24L252.88-23.60L252.40-23.60Q251.32-23.60 250.34-23.02Q249.36-22.44 248.72-21.56L248.72-21.56L241.04-9.92L241.04-2.56Q241.04-1.68 241.72-1.04Q242.40-0.40 243.36-0.40L243.36-0.40L243.84-0.40L243.84 0L235.64 0L235.64-0.40L236.12-0.40Q237.08-0.40 237.76-1.04Q238.44-1.68 238.44-2.56L238.44-2.56L238.44-9.96L231.04-21.60Q229.68-23.60 227.36-23.60L227.36-23.60L226.88-23.60L226.88-24L236.16-24L236.16-23.60L235.68-23.60Q234.92-23.60 234.58-23.12Q234.24-22.64 234.24-22.30Q234.24-21.96 234.32-21.68L234.32-21.68L240.16-11.32L246.36-21.64Q246.48-21.96 246.48-22.30Q246.48-22.64 246.14-23.12Q245.80-23.60 245.00-23.60L245.00-23.60L244.52-23.60L244.52-24L252.88-24Z"/></g>
</svg>
</g><g opacity="1" transform="rotate(0 247.5163 197.0194)">
<svg width="135.4083" height="1.4" x="247.5163" y="197.0194" version="1.1" preserveAspectRatio="none" viewBox="0 0 135.4083 1.4">
  <defs><rect x="0" y="0" width="135.4083" height="1.4" rx="0px" ry="0px" id="id-q6WP-wJgV1697432712010"></rect></defs><use class="icon1 aq6WP-wJgVstrokeColor-str" style="stroke-width:0;" xlink:href="#id-q6WP-wJgV1697432712010"></use>
</svg>
</g></svg></svg>